<mxfile host="app.diagrams.net" modified="2020-09-11T09:01:50.551Z" agent="5.0 (Macintosh; Intel Mac OS X 10_15_6) AppleWebKit/537.36 (KHTML, like Gecko) Chrome/85.0.4183.83 Safari/537.36" etag="A4Bwano-LuvojjQ9HdjO" version="13.6.9" type="github">
  <diagram id="UU6nNteqDkm7iYNBiP1f" name="Page-1">
    <mxGraphModel dx="1426" dy="771" grid="1" gridSize="10" guides="1" tooltips="1" connect="1" arrows="1" fold="1" page="1" pageScale="1" pageWidth="827" pageHeight="1169" math="0" shadow="0">
      <root>
        <mxCell id="0" />
        <mxCell id="1" parent="0" />
        <mxCell id="FfJCFT10pfWTpX2t_l2P-49" value="" style="endArrow=none;html=1;strokeWidth=4;fontSize=12;exitX=1;exitY=0.5;exitDx=0;exitDy=0;entryX=0;entryY=0.5;entryDx=0;entryDy=0;strokeColor=#FF3333;" edge="1" parent="1" source="FfJCFT10pfWTpX2t_l2P-1" target="FfJCFT10pfWTpX2t_l2P-9">
          <mxGeometry width="50" height="50" relative="1" as="geometry">
            <mxPoint x="130" y="230" as="sourcePoint" />
            <mxPoint x="180" y="180" as="targetPoint" />
          </mxGeometry>
        </mxCell>
        <mxCell id="FfJCFT10pfWTpX2t_l2P-1" value="qa/latest" style="ellipse;whiteSpace=wrap;html=1;aspect=fixed;fillColor=#f8cecc;strokeColor=#b85450;" vertex="1" parent="1">
          <mxGeometry x="190" y="200" width="60" height="60" as="geometry" />
        </mxCell>
        <mxCell id="FfJCFT10pfWTpX2t_l2P-9" value="master" style="ellipse;whiteSpace=wrap;html=1;aspect=fixed;fillColor=#dae8fc;strokeColor=#6c8ebf;" vertex="1" parent="1">
          <mxGeometry x="390" y="200" width="60" height="60" as="geometry" />
        </mxCell>
        <mxCell id="FfJCFT10pfWTpX2t_l2P-12" value="merge" style="text;html=1;align=center;verticalAlign=middle;whiteSpace=wrap;rounded=0;fontColor=#333333;fillColor=#FFFFFF;" vertex="1" parent="1">
          <mxGeometry x="280" y="220" width="40" height="20" as="geometry" />
        </mxCell>
        <mxCell id="FfJCFT10pfWTpX2t_l2P-19" style="edgeStyle=orthogonalEdgeStyle;rounded=0;orthogonalLoop=1;jettySize=auto;html=1;exitX=0.1;exitY=0.5;exitDx=0;exitDy=0;exitPerimeter=0;entryX=0;entryY=0.5;entryDx=0;entryDy=0;strokeWidth=4;strokeColor=#66FF66;" edge="1" parent="1" source="FfJCFT10pfWTpX2t_l2P-14" target="FfJCFT10pfWTpX2t_l2P-16">
          <mxGeometry relative="1" as="geometry" />
        </mxCell>
        <mxCell id="FfJCFT10pfWTpX2t_l2P-20" style="edgeStyle=orthogonalEdgeStyle;rounded=0;orthogonalLoop=1;jettySize=auto;html=1;exitX=0.5;exitY=0;exitDx=0;exitDy=0;entryX=0;entryY=0.5;entryDx=0;entryDy=0;strokeColor=#66FF66;strokeWidth=4;" edge="1" parent="1" source="FfJCFT10pfWTpX2t_l2P-14" target="FfJCFT10pfWTpX2t_l2P-15">
          <mxGeometry relative="1" as="geometry">
            <Array as="points">
              <mxPoint x="540" y="170" />
            </Array>
          </mxGeometry>
        </mxCell>
        <mxCell id="FfJCFT10pfWTpX2t_l2P-21" style="edgeStyle=orthogonalEdgeStyle;rounded=0;orthogonalLoop=1;jettySize=auto;html=1;exitX=0.75;exitY=1;exitDx=0;exitDy=0;entryX=0;entryY=0.5;entryDx=0;entryDy=0;strokeColor=#66FF66;strokeWidth=4;" edge="1" parent="1" source="FfJCFT10pfWTpX2t_l2P-14" target="FfJCFT10pfWTpX2t_l2P-17">
          <mxGeometry relative="1" as="geometry">
            <Array as="points">
              <mxPoint x="540" y="290" />
            </Array>
          </mxGeometry>
        </mxCell>
        <mxCell id="FfJCFT10pfWTpX2t_l2P-14" value="" style="shape=curlyBracket;whiteSpace=wrap;html=1;rounded=1;fillColor=#FFFFFF;rotation=0;strokeColor=#66FF66;strokeWidth=5;" vertex="1" parent="1">
          <mxGeometry x="480" y="170" width="20" height="120" as="geometry" />
        </mxCell>
        <mxCell id="FfJCFT10pfWTpX2t_l2P-15" value="feat/cat" style="ellipse;whiteSpace=wrap;html=1;aspect=fixed;fillColor=#f5f5f5;strokeColor=#666666;fontColor=#333333;" vertex="1" parent="1">
          <mxGeometry x="540" y="150" width="40" height="40" as="geometry" />
        </mxCell>
        <mxCell id="FfJCFT10pfWTpX2t_l2P-23" style="edgeStyle=orthogonalEdgeStyle;rounded=0;orthogonalLoop=1;jettySize=auto;html=1;exitX=1;exitY=0.5;exitDx=0;exitDy=0;strokeColor=#66FF66;strokeWidth=5;" edge="1" parent="1" source="FfJCFT10pfWTpX2t_l2P-16">
          <mxGeometry relative="1" as="geometry">
            <mxPoint x="620" y="120" as="targetPoint" />
          </mxGeometry>
        </mxCell>
        <mxCell id="FfJCFT10pfWTpX2t_l2P-16" value="&lt;font style=&quot;font-size: 11px&quot;&gt;chore/ci&lt;/font&gt;" style="ellipse;whiteSpace=wrap;html=1;aspect=fixed;fillColor=#f5f5f5;strokeColor=#666666;fontSize=12;fontColor=#333333;" vertex="1" parent="1">
          <mxGeometry x="540" y="210" width="40" height="40" as="geometry" />
        </mxCell>
        <mxCell id="FfJCFT10pfWTpX2t_l2P-24" style="edgeStyle=orthogonalEdgeStyle;rounded=0;orthogonalLoop=1;jettySize=auto;html=1;exitX=1;exitY=0.5;exitDx=0;exitDy=0;strokeColor=#66FF66;strokeWidth=5;" edge="1" parent="1" source="FfJCFT10pfWTpX2t_l2P-17">
          <mxGeometry relative="1" as="geometry">
            <mxPoint x="620" y="180" as="targetPoint" />
            <Array as="points">
              <mxPoint x="620" y="290" />
            </Array>
          </mxGeometry>
        </mxCell>
        <mxCell id="FfJCFT10pfWTpX2t_l2P-17" value="style/pa" style="ellipse;whiteSpace=wrap;html=1;aspect=fixed;fillColor=#f5f5f5;strokeColor=#666666;fontColor=#333333;" vertex="1" parent="1">
          <mxGeometry x="540" y="270" width="40" height="40" as="geometry" />
        </mxCell>
        <mxCell id="FfJCFT10pfWTpX2t_l2P-11" value="" style="shape=image;html=1;verticalAlign=top;verticalLabelPosition=bottom;labelBackgroundColor=#ffffff;imageAspect=0;aspect=fixed;image=https://cdn4.iconfinder.com/data/icons/ionicons/512/icon-close-circled-128.png;imageBackground=#ffffff;" vertex="1" parent="1">
          <mxGeometry x="340" y="215" width="30" height="30" as="geometry" />
        </mxCell>
        <mxCell id="FfJCFT10pfWTpX2t_l2P-25" value="" style="html=1;aspect=fixed;strokeColor=none;shadow=0;align=center;verticalAlign=top;fillColor=#2D9C5E;shape=mxgraph.gcp2.check" vertex="1" parent="1">
          <mxGeometry x="425" y="118" width="25" height="20" as="geometry" />
        </mxCell>
        <mxCell id="FfJCFT10pfWTpX2t_l2P-30" style="edgeStyle=orthogonalEdgeStyle;rounded=0;orthogonalLoop=1;jettySize=auto;html=1;exitX=1;exitY=0.5;exitDx=0;exitDy=0;strokeColor=#66FF66;strokeWidth=5;" edge="1" parent="1" source="FfJCFT10pfWTpX2t_l2P-15">
          <mxGeometry relative="1" as="geometry">
            <mxPoint x="600" y="160" as="sourcePoint" />
            <mxPoint x="220" y="200" as="targetPoint" />
            <Array as="points">
              <mxPoint x="620" y="170" />
              <mxPoint x="620" y="110" />
            </Array>
          </mxGeometry>
        </mxCell>
        <mxCell id="FfJCFT10pfWTpX2t_l2P-26" value="merge" style="text;html=1;align=center;verticalAlign=middle;whiteSpace=wrap;rounded=0;fontColor=#333333;fillColor=#FFFFFF;" vertex="1" parent="1">
          <mxGeometry x="490" y="98" width="40" height="20" as="geometry" />
        </mxCell>
        <mxCell id="FfJCFT10pfWTpX2t_l2P-31" style="edgeStyle=orthogonalEdgeStyle;rounded=0;orthogonalLoop=1;jettySize=auto;html=1;entryX=0;entryY=0.5;entryDx=0;entryDy=0;strokeWidth=4;strokeColor=#FF3333;exitX=0.5;exitY=1;exitDx=0;exitDy=0;" edge="1" parent="1" source="FfJCFT10pfWTpX2t_l2P-1" target="FfJCFT10pfWTpX2t_l2P-1">
          <mxGeometry relative="1" as="geometry">
            <mxPoint x="260" y="230" as="sourcePoint" />
            <Array as="points">
              <mxPoint x="220" y="290" />
              <mxPoint x="160" y="290" />
              <mxPoint x="160" y="230" />
            </Array>
          </mxGeometry>
        </mxCell>
        <mxCell id="FfJCFT10pfWTpX2t_l2P-32" value="commit" style="edgeLabel;html=1;align=center;verticalAlign=middle;resizable=0;points=[];" vertex="1" connectable="0" parent="FfJCFT10pfWTpX2t_l2P-31">
          <mxGeometry x="-0.2389" y="1" relative="1" as="geometry">
            <mxPoint x="37.99999999999999" y="-21" as="offset" />
          </mxGeometry>
        </mxCell>
        <mxCell id="FfJCFT10pfWTpX2t_l2P-33" value="" style="shape=image;html=1;verticalAlign=top;verticalLabelPosition=bottom;labelBackgroundColor=#ffffff;imageAspect=0;aspect=fixed;image=https://cdn4.iconfinder.com/data/icons/ionicons/512/icon-close-circled-128.png;imageBackground=#ffffff;" vertex="1" parent="1">
          <mxGeometry x="144" y="250" width="30" height="30" as="geometry" />
        </mxCell>
        <mxCell id="FfJCFT10pfWTpX2t_l2P-43" value="" style="endArrow=classic;html=1;strokeColor=#66FF66;strokeWidth=4;fontSize=12;entryX=0.5;entryY=0;entryDx=0;entryDy=0;" edge="1" parent="1" target="FfJCFT10pfWTpX2t_l2P-9">
          <mxGeometry width="50" height="50" relative="1" as="geometry">
            <mxPoint x="420" y="110" as="sourcePoint" />
            <mxPoint x="180" y="180" as="targetPoint" />
          </mxGeometry>
        </mxCell>
        <mxCell id="FfJCFT10pfWTpX2t_l2P-44" value="" style="endArrow=none;html=1;strokeColor=#66FF66;strokeWidth=4;fontSize=12;entryX=1;entryY=0.5;entryDx=0;entryDy=0;" edge="1" parent="1" source="FfJCFT10pfWTpX2t_l2P-14" target="FfJCFT10pfWTpX2t_l2P-9">
          <mxGeometry width="50" height="50" relative="1" as="geometry">
            <mxPoint x="130" y="230" as="sourcePoint" />
            <mxPoint x="180" y="180" as="targetPoint" />
          </mxGeometry>
        </mxCell>
        <mxCell id="FfJCFT10pfWTpX2t_l2P-47" value="" style="html=1;aspect=fixed;strokeColor=none;shadow=0;align=center;verticalAlign=top;fillColor=#2D9C5E;shape=mxgraph.gcp2.check" vertex="1" parent="1">
          <mxGeometry x="225" y="118" width="25" height="20" as="geometry" />
        </mxCell>
      </root>
    </mxGraphModel>
  </diagram>
</mxfile>
